<?xml version="1.0" standalone="no"?>
<!DOCTYPE svg PUBLIC "-//W3C//DTD SVG 20010904//EN"
 "http://www.w3.org/TR/2001/REC-SVG-20010904/DTD/svg10.dtd">
<svg version="1.0" xmlns="http://www.w3.org/2000/svg"
 width="700.000000pt" height="700.000000pt" viewBox="0 0 700.000000 700.000000"
 preserveAspectRatio="xMidYMid meet">
<metadata>
Created by potrace 1.14, written by Peter Selinger 2001-2017
</metadata>
<g transform="translate(0.000000,700.000000) scale(0.100000,-0.100000)"
fill="#000000" stroke="none">
<path d="M2870 5870 c-49 -16 -206 -50 -232 -50 -14 0 -37 -9 -51 -20 -34 -27
-57 -26 -57 3 0 27 -26 67 -44 67 -10 0 -64 -51 -88 -83 -2 -2 -15 -514 -26
-1017 l-7 -344 -25 -14 c-20 -12 -33 -12 -70 -2 -36 9 -61 28 -132 100 -58 59
-91 101 -99 127 -7 22 -15 140 -19 278 -6 209 -10 247 -28 295 -11 30 -24 79
-28 108 -5 39 -12 57 -28 68 -30 19 -66 21 -104 5 -24 -10 -33 -22 -39 -50
-12 -59 -9 -511 5 -556 24 -82 64 -200 73 -215 5 -8 16 -31 24 -50 53 -124
171 -257 253 -284 27 -9 66 -25 88 -36 21 -11 44 -20 52 -20 27 0 72 -31 87
-61 11 -20 15 -51 13 -97 l-3 -67 -65 -47 c-36 -26 -106 -82 -157 -124 -50
-42 -106 -86 -125 -99 -36 -24 -120 -180 -133 -245 -4 -19 -15 -49 -25 -67
-11 -18 -24 -60 -31 -95 -6 -35 -22 -89 -35 -120 -16 -37 -24 -78 -24 -115 -1
-32 -5 -89 -10 -128 -5 -38 -12 -92 -16 -120 -3 -27 -12 -68 -20 -90 -12 -33
-14 -114 -12 -462 l3 -423 42 -41 41 -42 35 22 c19 12 38 29 43 39 21 47 37
141 44 267 5 77 14 208 20 290 6 83 15 251 20 375 5 124 13 254 19 290 5 36
14 101 21 145 7 53 23 104 46 150 19 39 34 76 34 83 0 7 29 56 64 110 71 109
127 155 180 150 28 -3 32 -8 42 -48 7 -30 17 -46 30 -50 10 -3 28 -11 39 -17
20 -13 20 -13 1 -28 -11 -8 -30 -15 -42 -15 -13 0 -27 -6 -31 -13 -4 -7 -28
-27 -53 -43 -37 -24 -46 -36 -48 -64 -5 -57 14 -72 91 -74 36 -1 70 -5 74 -10
4 -4 -7 -20 -24 -34 l-33 -27 -4 -880 c-3 -484 -8 -909 -11 -945 -8 -70 20
-263 39 -279 42 -34 116 -12 153 46 17 25 18 54 16 362 -2 257 0 337 10 343 6
4 42 17 79 28 37 11 70 25 74 31 3 6 26 19 49 29 24 10 75 39 113 64 38 25 79
46 91 46 19 0 21 -6 21 -54 0 -30 9 -82 19 -117 10 -35 22 -77 26 -94 12 -53
32 -75 70 -75 48 0 58 24 67 165 4 66 10 146 14 177 8 74 2 91 -29 79 -51 -19
-79 30 -29 52 15 7 36 20 47 30 11 10 41 34 67 55 201 159 285 232 389 335 66
64 124 117 129 117 5 0 14 -9 20 -19 5 -11 20 -23 32 -27 13 -4 39 -17 58 -30
19 -12 64 -30 99 -38 36 -9 70 -21 76 -26 15 -13 134 -29 166 -23 16 3 30 -1
38 -11 11 -13 9 -23 -15 -60 -16 -25 -42 -68 -59 -96 -16 -29 -59 -86 -94
-128 -35 -43 -77 -94 -95 -115 -53 -66 -245 -256 -271 -269 -14 -8 -64 -52
-112 -99 -87 -85 -171 -157 -273 -234 -63 -48 -124 -97 -166 -133 -18 -15 -55
-40 -84 -57 -29 -16 -66 -42 -84 -56 -17 -14 -46 -34 -64 -43 -42 -22 -72 -71
-72 -117 0 -48 19 -62 85 -62 42 0 64 6 92 25 21 14 52 33 68 43 17 10 72 54
123 97 51 43 96 78 101 78 8 0 42 25 127 94 18 14 56 42 85 63 153 104 576
522 671 663 17 25 27 38 128 172 70 93 91 123 120 175 24 44 74 73 125 73 13
0 51 14 83 30 33 17 64 30 69 30 21 0 115 70 155 116 66 75 98 127 113 184 7
28 20 61 28 74 8 12 20 49 27 81 6 33 21 76 32 95 19 33 31 114 57 390 4 41
13 88 19 103 19 45 16 557 -3 604 -8 19 -15 59 -15 87 0 28 -5 67 -11 86 -6
19 -14 121 -19 225 -5 105 -13 204 -18 220 -5 17 -18 67 -28 113 -13 64 -26
94 -53 129 -78 100 -153 156 -246 183 -33 10 -78 25 -100 34 -24 9 -73 15
-120 16 -49 0 -86 5 -93 12 -8 8 -12 49 -12 117 -1 138 -10 180 -52 244 -66
99 -127 106 -958 112 -316 2 -586 0 -600 -5z m255 -180 c143 3 263 2 705 -5
340 -6 368 -7 408 -26 51 -25 60 -51 44 -129 -7 -31 -12 -83 -12 -116 -1 -45
-3 -55 -11 -41 -8 14 -24 17 -88 17 -45 0 -97 -7 -122 -15 -79 -28 -291 -45
-570 -45 -246 0 -329 7 -329 28 0 4 -10 20 -23 35 -21 27 -24 28 -52 16 -17
-7 -45 -27 -63 -43 -33 -31 -35 -31 -156 -34 -171 -5 -181 1 -190 105 -4 43
-9 101 -12 129 -7 62 -3 66 113 105 78 26 97 28 168 23 44 -4 130 -5 190 -4z
m-621 -476 c8 -31 -8 -54 -25 -37 -11 11 -2 63 11 63 4 0 11 -12 14 -26z
m1961 7 c3 -11 13 -22 22 -25 21 -8 145 -33 208 -41 69 -9 138 -57 176 -122
36 -63 59 -171 66 -310 5 -99 4 -103 -21 -128 l-25 -25 -468 0 c-396 -1 -471
-3 -487 -15 -24 -18 -63 -19 -93 -2 l-23 13 28 16 c15 9 47 19 72 23 25 4 58
18 73 31 16 13 34 24 40 24 7 0 32 16 56 35 24 19 47 35 51 35 15 0 199 190
216 222 9 18 26 45 36 59 11 14 24 57 30 95 17 121 20 134 28 134 5 0 11 -9
15 -19z m-301 -120 c48 -50 26 -88 -118 -198 -32 -25 -77 -53 -100 -64 -22
-10 -57 -28 -76 -39 -19 -11 -52 -20 -73 -20 -21 0 -65 -12 -100 -26 -60 -26
-66 -26 -237 -22 -151 4 -183 8 -232 27 -71 28 -81 42 -61 95 10 27 16 79 17
151 l1 110 -90 3 c-109 3 -115 -2 -115 -101 0 -75 -16 -143 -35 -151 -27 -10
-166 109 -185 158 -16 43 -12 74 12 90 20 14 102 16 693 16 l671 0 28 -29z
m-1604 -101 c0 -5 -4 -10 -10 -10 -5 0 -10 5 -10 10 0 6 5 10 10 10 6 0 10 -4
10 -10z m133 -213 c23 -25 56 -51 72 -60 17 -8 55 -31 85 -51 30 -20 60 -36
67 -36 18 0 16 -19 -2 -26 -8 -3 -17 -16 -21 -27 -10 -32 -102 -135 -135 -152
-15 -8 -40 -15 -54 -15 -14 0 -41 -6 -60 -14 -33 -14 -36 -14 -50 7 -12 18
-15 62 -15 248 0 124 3 229 7 233 4 4 21 -9 36 -28 16 -20 47 -55 70 -79z
m492 -217 c22 -10 59 -20 82 -24 23 -3 54 -12 69 -18 26 -12 26 -14 20 -77 -4
-35 -12 -73 -17 -83 -6 -11 -15 -47 -19 -80 -8 -58 -59 -172 -104 -231 -31
-41 -177 -189 -210 -212 -16 -11 -55 -39 -87 -63 -63 -47 -87 -50 -105 -14
-12 23 -80 72 -137 96 -18 7 -47 29 -66 49 l-33 35 3 92 c5 107 17 124 97 136
79 11 168 66 270 165 98 95 122 133 122 197 0 65 24 72 115 32z m1725 -223
c48 -24 55 -55 58 -277 2 -150 0 -216 -10 -245 -13 -39 -15 -40 -88 -58 -63
-15 -111 -17 -310 -15 -263 3 -230 -4 -333 79 -18 14 -48 34 -67 44 -19 9 -42
23 -50 30 -8 7 -50 31 -94 54 -43 23 -89 50 -103 60 -13 11 -38 23 -56 27 -18
3 -45 17 -60 30 -15 13 -42 26 -60 29 -18 4 -41 13 -51 21 -17 12 -18 17 -8
39 7 14 12 55 12 91 0 115 -66 104 608 104 453 0 593 -3 612 -13z m-1302 -144
c2 -8 -5 -13 -17 -13 -21 0 -35 13 -24 24 10 10 36 3 41 -11z m-124 -190 c-5
-10 -10 -61 -12 -113 -5 -120 20 -240 49 -240 11 0 19 -5 19 -11 0 -6 -8 -8
-18 -5 -15 5 -22 -2 -34 -31 -17 -39 -118 -160 -251 -298 -74 -76 -78 -79 -92
-61 -8 11 -15 35 -15 54 0 19 -11 55 -24 81 -13 25 -36 72 -51 105 -23 49 -34
61 -66 74 -44 17 -49 28 -16 38 12 4 38 21 58 38 19 17 55 47 79 66 66 52 102
86 205 188 52 50 98 92 103 92 5 0 17 9 27 20 23 26 51 27 39 3z m120 -39 c20
-8 20 -20 0 -28 -21 -8 -34 1 -27 19 6 17 6 17 27 9z m114 -81 c-5 -25 -28
-28 -28 -4 0 12 6 21 16 21 9 0 14 -7 12 -17z m216 -139 c17 -7 10 -29 -19
-58 -34 -34 -61 10 -28 46 18 20 23 21 47 12z m-1130 -45 c-3 -5 -10 -7 -15
-3 -5 3 -7 10 -3 15 3 5 10 7 15 3 5 -3 7 -10 3 -15z m1228 -1 c-12 -12 -35
-1 -27 12 3 5 13 6 21 3 10 -4 12 -9 6 -15z m-1333 -42 c15 -18 -8 -32 -68
-42 -36 -6 -41 -4 -41 13 0 10 5 24 12 31 17 17 83 15 97 -2z m1402 -2 c10
-13 10 -17 -2 -25 -18 -12 -26 -11 -34 1 -8 13 1 40 13 40 5 0 15 -7 23 -16z
m-251 -2 c0 -13 -12 -22 -22 -16 -10 6 -1 24 13 24 5 0 9 -4 9 -8z m-1265 -61
c8 -15 -35 -35 -47 -23 -6 6 -7 15 -4 21 9 14 43 14 51 2z m2301 -56 c33 -7
57 -72 51 -141 -8 -100 -37 -247 -57 -286 -10 -20 -24 -56 -30 -79 -8 -30 -27
-57 -60 -89 -68 -63 -150 -130 -160 -130 -15 0 -21 37 -10 66 6 16 17 58 25
94 14 70 11 100 -24 234 -12 43 -21 88 -21 100 0 21 -59 146 -94 198 -10 15
-15 31 -12 36 5 8 350 5 392 -3z m-693 -1 c12 -4 9 -14 -16 -52 -39 -59 -33
-51 -119 -154 -40 -48 -98 -118 -128 -155 -30 -36 -78 -91 -106 -120 -43 -44
-54 -50 -64 -39 -9 12 -7 19 9 35 26 26 26 41 0 94 -16 31 -24 70 -30 152 -4
60 -12 123 -18 138 -9 24 -7 33 12 60 12 18 27 35 32 39 12 9 406 11 428 2z
m-1359 -60 c3 -9 6 -27 6 -41 0 -14 9 -37 19 -52 11 -14 24 -53 30 -85 6 -33
17 -69 25 -81 8 -12 20 -41 27 -64 8 -26 21 -46 33 -51 21 -9 21 -9 1 -9 -11
-1 -37 -19 -57 -41 -21 -22 -55 -49 -75 -60 -67 -37 -107 -64 -137 -92 -16
-16 -34 -28 -41 -28 -7 0 -20 -9 -30 -20 -10 -11 -25 -20 -34 -20 -14 0 -16
24 -13 225 2 124 1 237 -2 250 -5 18 -13 25 -32 25 -15 0 -23 4 -19 10 4 6 16
8 27 4 15 -4 30 3 57 30 20 19 54 43 76 52 22 9 53 27 68 40 33 28 62 31 71 8z
m777 -120 c12 -14 9 -20 -16 -40 -30 -24 -30 -25 -29 -121 1 -90 4 -104 35
-168 20 -41 44 -74 57 -80 12 -5 22 -16 22 -24 0 -15 -249 -265 -345 -346 -93
-79 -122 -97 -131 -83 -4 6 -10 106 -12 221 -4 188 -7 212 -23 228 -23 23 -24
39 -3 39 8 0 45 29 82 64 136 129 267 249 289 263 13 9 23 21 23 27 0 13 20
36 31 36 4 0 13 -7 20 -16z m752 -14 c64 -76 101 -281 73 -409 -43 -196 -29
-189 -281 -134 -38 9 -101 25 -138 36 -65 19 -71 19 -97 4 -23 -14 -29 -15
-39 -3 -9 11 -6 18 14 34 14 11 25 24 25 29 0 5 19 29 41 53 23 25 63 68 88
95 26 28 57 67 70 88 12 20 27 37 32 37 5 0 18 14 28 30 21 35 142 170 152
170 4 0 18 -13 32 -30z m-1299 -173 c16 -12 16 -14 -4 -32 -19 -17 -22 -17
-37 -2 -13 13 -14 19 -3 31 15 19 21 20 44 3z m676 -191 c0 -7 -7 -19 -15 -26
-19 -16 -41 1 -32 24 8 20 47 21 47 2z m-621 -81 c-13 -14 -17 -14 -34 0 -20
15 -20 15 0 30 17 14 21 14 34 0 14 -13 14 -17 0 -30z m-114 -174 c3 -66 5
-166 4 -223 -3 -106 2 -131 25 -122 7 3 19 -2 26 -10 10 -13 9 -17 -4 -22 -9
-3 -23 -4 -31 -1 -9 4 -29 -9 -52 -33 -21 -21 -78 -59 -128 -85 -49 -26 -101
-56 -114 -66 -13 -11 -28 -19 -33 -19 -4 0 -26 -12 -48 -26 -21 -14 -47 -24
-57 -22 -16 3 -17 17 -15 203 2 110 6 210 9 222 7 33 -5 61 -30 65 -12 2 -23
11 -25 21 -3 13 4 17 30 17 45 0 115 26 150 56 16 13 35 24 41 24 11 0 73 38
126 77 27 20 102 62 112 63 4 0 10 -54 14 -119z m-481 76 c16 -12 16 -14 -7
-35 -24 -22 -24 -22 -42 -2 -14 16 -15 22 -5 35 15 18 31 19 54 2z m1326 -13
c0 -14 -12 -19 -23 -8 -9 9 4 35 14 28 5 -3 9 -12 9 -20z m493 -110 c3 -4 2
-16 -4 -26 -13 -24 -35 -9 -26 16 7 17 19 21 30 10z m237 -10 c0 -8 -5 -12
-10 -9 -6 4 -8 11 -5 16 9 14 15 11 15 -7z m-2058 -598 c17 -12 17 -14 0 -30
-36 -32 -81 -6 -52 29 15 18 29 19 52 1z"/>
<path d="M3609 5088 c-29 -32 -36 -51 -56 -153 -6 -27 -17 -67 -26 -87 -15
-34 -15 -38 -1 -53 13 -12 33 -15 93 -13 76 3 76 3 93 38 9 19 20 55 24 80 13
87 63 169 116 191 52 21 28 29 -93 29 l-120 0 -30 -32z"/>
</g>
</svg>
