<?xml version="1.0" standalone="no"?>
<!DOCTYPE svg PUBLIC "-//W3C//DTD SVG 20010904//EN"
 "http://www.w3.org/TR/2001/REC-SVG-20010904/DTD/svg10.dtd">
<svg version="1.0" xmlns="http://www.w3.org/2000/svg"
 width="480.000000pt" height="480.000000pt" viewBox="0 0 480.000000 480.000000"
 preserveAspectRatio="xMidYMid meet">
<metadata>
Created by potrace 1.14, written by Peter Selinger 2001-2017
</metadata>
<g transform="translate(0.000000,480.000000) scale(0.100000,-0.100000)"
fill="#000000" stroke="none">
<path d="M1310 3325 c0 -10 -11 -15 -35 -15 -19 0 -35 -4 -35 -10 0 -5 -11
-10 -25 -10 l-25 0 0 -110 c0 -91 3 -110 15 -110 11 0 15 -12 15 -45 0 -25 5
-45 10 -45 6 0 10 -11 10 -25 0 -14 5 -25 10 -25 6 0 10 -7 10 -15 0 -8 7 -15
15 -15 8 0 15 -4 15 -10 0 -5 9 -10 21 -10 22 0 49 -22 49 -39 0 -6 21 -11 50
-11 28 0 50 -4 50 -10 0 -5 20 -10 45 -10 33 0 45 -4 45 -15 0 -8 -4 -15 -10
-15 -6 0 -10 -27 -10 -60 0 -36 -4 -60 -11 -60 -16 0 -39 -26 -39 -45 0 -19
-23 -45 -39 -45 -6 0 -11 -5 -11 -11 0 -16 -26 -39 -45 -39 -19 0 -45 -23 -45
-39 0 -6 -11 -11 -25 -11 -14 0 -25 -4 -25 -10 0 -5 -11 -10 -25 -10 -16 0
-25 -6 -25 -15 0 -9 -9 -15 -25 -15 -14 0 -25 -4 -25 -10 0 -5 -9 -10 -21 -10
-26 0 -49 -23 -49 -49 0 -18 6 -21 50 -21 28 0 50 5 50 10 0 6 9 10 20 10 11
0 20 7 20 15 0 9 9 15 25 15 14 0 25 5 25 10 0 6 9 10 21 10 22 0 49 22 49 39
0 6 11 11 25 11 14 0 25 5 25 10 0 6 7 10 15 10 8 0 15 5 15 10 0 14 46 60 60
60 5 0 10 5 10 11 0 14 25 39 39 39 6 0 11 7 11 15 0 8 5 15 10 15 6 0 10 -7
10 -15 0 -9 9 -15 21 -15 25 0 49 -22 49 -45 0 -19 -23 -45 -39 -45 -6 0 -11
-11 -11 -25 0 -14 -4 -25 -10 -25 -5 0 -10 -5 -10 -11 0 -11 -25 -39 -35 -39
-10 0 -35 -28 -35 -39 0 -6 -5 -11 -11 -11 -11 0 -39 -25 -39 -35 0 -10 -28
-35 -39 -35 -6 0 -11 -4 -11 -10 0 -5 -11 -10 -25 -10 -14 0 -25 -5 -25 -11 0
-17 -27 -39 -49 -39 -12 0 -21 -5 -21 -11 0 -14 -25 -39 -39 -39 -6 0 -11 -4
-11 -10 0 -5 -9 -10 -20 -10 -11 0 -20 -7 -20 -15 0 -8 -7 -15 -15 -15 -9 0
-15 -9 -15 -25 0 -23 3 -25 50 -25 38 0 50 4 50 15 0 9 9 15 21 15 22 0 49 22
49 39 0 6 10 11 23 11 12 0 29 9 37 20 8 11 20 20 27 20 7 0 13 7 13 15 0 8 9
15 20 15 11 0 20 5 20 10 0 6 7 10 15 10 8 0 15 5 15 11 0 11 25 39 35 39 8 0
35 27 35 35 0 10 28 35 39 35 6 0 11 5 11 11 0 11 25 39 35 39 14 0 35 30 35
49 0 12 5 21 10 21 6 0 10 7 10 15 0 11 11 15 40 15 26 0 40 -5 40 -13 0 -7 9
-19 20 -27 21 -15 29 -80 10 -80 -5 0 -10 -5 -10 -11 0 -14 -25 -39 -39 -39
-6 0 -11 -7 -11 -15 0 -8 -4 -15 -10 -15 -5 0 -10 -9 -10 -20 0 -11 -7 -20
-15 -20 -8 0 -15 -6 -15 -13 0 -7 -9 -19 -20 -27 -11 -8 -20 -20 -20 -27 0 -7
-6 -13 -13 -13 -7 0 -19 -9 -27 -20 -8 -11 -20 -20 -27 -20 -7 0 -13 -6 -13
-13 0 -7 -9 -19 -20 -27 -11 -8 -20 -20 -20 -27 0 -7 -6 -13 -13 -13 -7 0 -19
-9 -27 -20 -8 -11 -25 -20 -37 -20 -13 0 -23 -5 -23 -11 0 -14 -25 -39 -39
-39 -6 0 -11 -7 -11 -15 0 -9 -9 -15 -25 -15 -14 0 -25 -4 -25 -10 0 -5 -9
-10 -20 -10 -11 0 -20 -4 -20 -10 0 -5 -7 -10 -15 -10 -8 0 -15 -7 -15 -15 0
-9 -9 -15 -25 -15 -14 0 -25 -4 -25 -10 0 -5 -9 -10 -20 -10 -11 0 -20 -7 -20
-15 0 -9 -9 -15 -25 -15 -22 0 -25 -4 -25 -35 0 -33 2 -35 35 -35 24 0 35 5
35 15 0 10 11 15 35 15 19 0 35 5 35 10 0 6 9 10 21 10 22 0 49 22 49 39 0 6
11 11 25 11 14 0 25 5 25 10 0 6 7 10 15 10 8 0 15 5 15 11 0 16 26 39 45 39
19 0 45 23 45 39 0 6 5 11 11 11 11 0 39 25 39 35 0 8 27 35 35 35 10 0 35 28
35 39 0 6 5 11 11 11 11 0 39 25 39 35 0 8 27 35 35 35 10 0 35 28 35 39 0 6
5 11 11 11 16 0 39 26 39 45 0 19 23 45 39 45 6 0 11 5 11 11 0 11 25 39 35
39 4 0 13 -6 21 -14 17 -17 21 -196 4 -196 -5 0 -10 -18 -10 -40 0 -29 -4 -40
-15 -40 -8 0 -15 -9 -15 -20 0 -11 -4 -20 -10 -20 -5 0 -10 -7 -10 -15 0 -8
-7 -15 -15 -15 -8 0 -15 -9 -15 -20 0 -22 -41 -70 -60 -70 -5 0 -10 -11 -10
-25 0 -14 -4 -25 -10 -25 -5 0 -10 -7 -10 -15 0 -8 -6 -15 -13 -15 -7 0 -19
-9 -27 -20 -8 -11 -25 -20 -37 -20 -13 0 -23 -5 -23 -11 0 -14 -25 -39 -39
-39 -6 0 -11 -5 -11 -10 0 -19 -48 -60 -70 -60 -11 0 -20 -7 -20 -15 0 -8 -5
-15 -11 -15 -14 0 -39 -25 -39 -39 0 -6 -10 -11 -23 -11 -12 0 -29 -9 -37 -20
-8 -11 -25 -20 -37 -20 -20 0 -23 -5 -23 -40 0 -39 1 -40 35 -40 24 0 35 5 35
15 0 9 9 15 21 15 22 0 49 22 49 39 0 6 7 11 15 11 8 0 15 5 15 10 0 6 9 10
21 10 19 0 49 21 49 35 0 14 30 35 49 35 12 0 21 6 21 15 0 8 5 15 10 15 14 0
60 46 60 60 0 5 5 10 11 10 14 0 39 25 39 39 0 6 5 11 10 11 14 0 60 46 60 60
0 5 7 10 15 10 9 0 15 9 15 21 0 19 21 49 35 49 14 0 35 30 35 49 0 12 5 21
10 21 6 0 10 7 10 15 0 8 7 15 15 15 10 0 15 11 15 35 0 19 5 35 10 35 6 0 10
16 10 35 0 24 5 35 15 35 12 0 15 13 15 60 0 47 -3 60 -15 60 -10 0 -15 11
-15 35 0 19 -4 35 -10 35 -5 0 -10 11 -10 25 0 16 -6 25 -15 25 -9 0 -15 9
-15 23 0 12 -9 29 -20 37 -11 8 -20 20 -20 27 0 7 -6 13 -13 13 -7 0 -19 9
-27 20 -8 11 -25 20 -37 20 -13 0 -23 5 -23 11 0 17 -27 39 -49 39 -12 0 -21
6 -21 15 0 9 -9 15 -25 15 -14 0 -25 5 -25 10 0 6 -11 10 -25 10 -14 0 -25 5
-25 10 0 6 -11 10 -25 10 -24 0 -25 2 -25 75 l0 75 60 0 c33 0 60 4 60 10 0 6
11 10 25 10 16 0 25 6 25 15 0 9 9 15 23 15 12 0 29 9 37 20 8 11 20 20 27 20
7 0 13 5 13 11 0 14 25 39 39 39 6 0 11 7 11 15 0 8 5 15 10 15 6 0 10 20 10
45 0 25 5 45 10 45 6 0 10 42 10 106 0 112 -8 134 -49 134 -12 0 -21 6 -21 15
0 13 -40 15 -300 15 -260 0 -300 -2 -300 -15z m100 -75 c0 -5 16 -10 35 -10
19 0 35 5 35 10 0 6 27 10 60 10 33 0 60 -4 60 -10 0 -6 58 -10 155 -10 l155
0 0 -25 c0 -14 -4 -25 -10 -25 -5 0 -10 -16 -10 -35 l0 -35 -300 0 -300 0 0
35 c0 24 -5 35 -15 35 -9 0 -15 9 -15 25 0 23 4 25 40 25 22 0 40 5 40 10 0 6
16 10 35 10 19 0 35 -4 35 -10z m450 -250 c0 -11 -4 -20 -10 -20 -5 0 -10 -7
-10 -15 0 -9 -9 -15 -25 -15 -14 0 -25 -4 -25 -10 0 -5 -11 -10 -25 -10 -16 0
-25 -6 -25 -15 0 -10 -11 -15 -35 -15 -19 0 -35 -4 -35 -10 0 -6 -35 -10 -85
-10 -50 0 -85 4 -85 10 0 6 -16 10 -35 10 -24 0 -35 5 -35 15 0 9 -9 15 -25
15 -14 0 -25 5 -25 10 0 6 -9 10 -20 10 -11 0 -20 7 -20 15 0 8 -7 15 -15 15
-8 0 -15 9 -15 20 0 20 7 20 275 20 268 0 275 0 275 -20z"/>
<path d="M2790 3325 c0 -8 -4 -15 -10 -15 -6 0 -10 -55 -10 -145 0 -122 -2
-145 -15 -145 -13 0 -15 -21 -15 -130 0 -123 -1 -130 -20 -130 -11 0 -20 5
-20 10 0 6 -7 10 -15 10 -8 0 -15 5 -15 11 0 14 -25 39 -39 39 -7 0 -11 41
-11 120 0 73 -4 120 -10 120 -5 0 -10 16 -10 35 0 33 -2 35 -35 35 l-35 0 0
-130 c0 -80 4 -130 10 -130 6 0 10 -16 10 -35 0 -24 5 -35 15 -35 9 0 15 -9
15 -23 0 -12 9 -29 20 -37 11 -8 20 -20 20 -27 0 -7 7 -13 15 -13 8 0 15 -4
15 -10 0 -5 11 -10 25 -10 16 0 25 -6 25 -15 0 -8 9 -15 20 -15 11 0 20 -4 20
-10 0 -5 7 -10 15 -10 10 0 15 -11 15 -35 0 -31 -3 -35 -25 -35 -14 0 -25 -5
-25 -11 0 -11 -25 -39 -35 -39 -10 0 -35 -28 -35 -39 0 -6 -11 -11 -25 -11
-20 0 -25 -5 -25 -25 0 -14 -4 -25 -10 -25 -5 0 -10 -16 -10 -35 0 -24 -5 -35
-15 -35 -10 0 -15 -11 -15 -35 0 -19 -4 -35 -10 -35 -6 0 -10 -30 -10 -70 0
-56 -3 -70 -15 -70 -13 0 -15 -29 -15 -205 0 -176 2 -205 15 -205 8 0 15 -7
15 -15 0 -8 5 -15 10 -15 6 0 10 7 10 15 0 8 7 15 15 15 9 0 15 9 15 25 0 14
5 25 10 25 6 0 10 73 10 200 0 127 4 200 10 200 6 0 10 32 10 75 0 60 3 75 15
75 9 0 15 9 15 25 0 14 5 25 10 25 6 0 10 9 10 20 0 11 7 20 15 20 8 0 15 7
15 15 0 8 9 15 20 15 11 0 20 5 20 10 0 6 7 10 15 10 13 0 15 -54 15 -430 0
-376 -2 -430 -15 -430 -10 0 -15 -11 -15 -35 0 -24 5 -35 15 -35 11 0 15 -11
15 -40 0 -36 3 -40 25 -40 16 0 25 6 25 15 0 8 5 15 10 15 7 0 10 170 10 490
0 320 3 490 10 490 6 0 10 -4 10 -10 0 -5 11 -10 25 -10 20 0 25 -5 25 -25 0
-16 6 -25 15 -25 9 0 15 -9 15 -25 0 -14 5 -25 10 -25 6 0 10 -16 10 -35 0
-19 5 -35 10 -35 6 0 10 -27 10 -60 0 -47 3 -60 15 -60 13 0 15 -28 15 -190 0
-120 4 -190 10 -190 6 0 10 -18 10 -40 0 -36 3 -40 25 -40 24 0 25 3 25 60 0
33 4 60 10 60 6 0 10 32 10 75 0 43 -4 75 -10 75 -6 0 -10 58 -10 155 0 97 -4
155 -10 155 -5 0 -10 16 -10 35 0 24 -5 35 -15 35 -10 0 -15 11 -15 35 0 19
-4 35 -10 35 -5 0 -10 7 -10 15 0 8 -5 15 -11 15 -11 0 -39 25 -39 35 0 10
-28 35 -39 35 -6 0 -11 5 -11 10 0 6 -11 10 -25 10 -16 0 -25 6 -25 15 0 8 -4
15 -10 15 -5 0 -10 20 -10 45 0 45 0 45 35 45 24 0 35 5 35 15 0 9 9 15 21 15
22 0 49 22 49 39 0 6 5 11 11 11 20 0 39 29 39 59 0 21 5 31 15 31 11 0 15 12
15 50 0 28 5 50 10 50 17 0 13 179 -4 196 -22 21 -56 18 -56 -6 0 -11 -7 -20
-15 -20 -12 0 -15 -20 -15 -120 0 -73 -4 -120 -10 -120 -5 0 -10 -11 -10 -25
0 -14 -4 -25 -10 -25 -5 0 -10 -7 -10 -15 0 -8 -7 -15 -15 -15 -8 0 -15 -4
-15 -10 0 -5 -16 -10 -35 -10 l-35 0 0 275 c0 177 -4 275 -10 275 -5 0 -10 7
-10 15 0 8 -7 15 -15 15 -8 0 -15 -7 -15 -15z"/>
<path d="M3390 3130 c0 -5 -16 -10 -35 -10 -19 0 -35 -4 -35 -10 0 -5 -11 -10
-25 -10 -16 0 -25 -6 -25 -15 0 -8 -4 -15 -10 -15 -5 0 -10 -11 -10 -25 0 -16
-6 -25 -15 -25 -11 0 -15 -12 -15 -45 0 -25 -4 -45 -10 -45 -6 0 -10 -32 -10
-75 0 -43 -4 -75 -10 -75 -6 0 -10 -53 -10 -140 0 -87 4 -140 10 -140 6 0 10
-35 10 -85 0 -50 4 -85 10 -85 6 0 10 -22 10 -50 0 -38 4 -50 15 -50 10 0 15
-10 15 -31 0 -30 19 -59 39 -59 6 0 11 -6 11 -13 0 -7 9 -19 20 -27 11 -8 20
-20 20 -27 0 -8 14 -13 40 -13 22 0 40 -4 40 -10 0 -6 47 -10 120 -10 73 0
120 4 120 10 0 6 16 10 35 10 19 0 35 5 35 11 0 14 25 39 39 39 6 0 11 11 11
25 0 14 5 25 10 25 6 0 10 11 10 25 0 14 5 25 10 25 6 0 10 16 10 35 0 24 5
35 15 35 12 0 15 13 15 60 0 33 4 60 10 60 6 0 10 67 10 180 0 113 -4 180 -10
180 -6 0 -10 43 -10 110 0 91 -3 110 -15 110 -10 0 -15 10 -15 33 0 21 -7 38
-20 47 -11 8 -20 20 -20 27 0 7 -7 13 -15 13 -8 0 -15 5 -15 10 0 6 -16 10
-35 10 -19 0 -35 5 -35 10 0 6 -55 10 -145 10 -90 0 -145 -4 -145 -10z m310
-95 c0 -8 5 -15 11 -15 28 0 39 -30 39 -109 l0 -81 -240 0 -240 0 0 35 c0 24
5 35 15 35 11 0 15 12 15 46 0 49 16 74 49 74 12 0 21 6 21 15 0 13 25 15 165
15 140 0 165 -2 165 -15z m50 -310 c0 -8 7 -15 15 -15 12 0 15 -17 15 -95 0
-95 0 -95 -25 -95 -14 0 -25 -4 -25 -10 0 -6 -78 -10 -215 -10 -137 0 -215 4
-215 10 0 6 -7 10 -15 10 -12 0 -15 19 -15 110 l0 110 240 0 c207 0 240 -2
240 -15z m0 -385 c0 -47 -4 -80 -10 -80 -5 0 -10 -18 -10 -40 0 -35 -3 -40
-23 -40 -12 0 -29 -9 -37 -20 -10 -14 -26 -20 -52 -20 -27 0 -38 -4 -38 -15 0
-11 -12 -15 -45 -15 -33 0 -45 4 -45 15 0 11 -12 15 -48 15 -36 0 -51 5 -62
20 -8 11 -20 20 -27 20 -7 0 -13 7 -13 15 0 8 -4 15 -10 15 -5 0 -10 11 -10
25 0 14 -4 25 -10 25 -6 0 -10 33 -10 80 l0 80 225 0 225 0 0 -80z"/>
</g>
</svg>
